<svg width="120" height="41" viewBox="0 0 120 41" fill="none" xmlns="http://www.w3.org/2000/svg">
<g clip-path="url(#clip0_89_53)">
<path fill-rule="evenodd" clip-rule="evenodd" d="M66.7778 1.98615C67.747 1.67762 69.2011 1.83055 70.0566 2.23435C70.1858 2.29538 70.2892 2.35534 70.4178 2.4217C72.2732 3.37991 73.3922 5.54152 73.0655 7.58408C73.0121 7.9178 72.9649 8.17363 72.858 8.47878C72.7093 8.90209 72.534 9.3018 72.2897 9.67384C72.0805 9.99247 71.6888 10.4603 71.3986 10.7018C70.913 11.1056 70.3563 11.4916 69.5818 11.7382C67.1071 12.5265 64.5312 11.3321 63.4508 9.08784C62.6196 7.36196 62.852 5.48492 63.8897 3.95739C64.0588 3.7083 64.2635 3.4915 64.4934 3.26743C65.2851 2.49639 65.7517 2.31312 66.778 1.98615H66.7778ZM55.5596 13.2237C57.7812 13.2237 59.6995 13.941 61.3147 15.3748C61.6655 14.6934 62.0169 14.012 62.3721 13.3325C62.5451 13.0012 62.6313 12.7903 62.7599 12.5666C63.6401 13.3736 64.7033 13.9939 65.8932 14.3556C65.7091 14.7747 65.4609 15.2404 65.2671 15.5773C65.2618 15.5867 65.2565 15.5964 65.2512 15.6069L64.4086 17.2409C64.3928 17.2694 64.3811 17.293 64.3682 17.3159L64.3417 17.3626C64.1139 17.7543 63.96 18.2133 63.7146 18.6002C63.7126 18.6031 63.7107 18.6061 63.7089 18.6091L63.6683 18.6877C64.4796 20.6435 64.8855 23.2039 64.8855 26.3692V35.0502C64.8855 35.8108 64.8607 36.3812 64.811 36.7615C64.7613 37.1419 64.6125 37.5801 64.3645 38.0762C64.1164 38.5722 63.6782 38.9194 63.05 39.1179C62.4216 39.3165 61.5784 39.4155 60.5201 39.4155C59.495 39.4155 58.6682 39.308 58.0398 39.0931C57.4114 38.8781 56.9732 38.5225 56.7254 38.0265C56.4774 37.5304 56.3285 37.0924 56.279 36.712C56.2293 36.3317 56.2045 35.7613 56.2045 35.0007V26.3197C56.2045 23.4426 55.1792 22.0041 53.1288 22.0041C51.9714 22.0041 51.186 22.3843 50.7726 23.1449C50.3594 23.9054 50.1526 24.9804 50.1526 26.3692V35.0502C50.1526 35.8438 50.1277 36.4227 50.0782 36.7864C50.0287 37.1503 49.8715 37.5799 49.6068 38.0762C49.3423 38.5722 48.8959 38.9194 48.2675 39.1179C47.6391 39.3165 46.7959 39.4155 45.7376 39.4155C44.7125 39.4155 43.8858 39.308 43.2574 39.0931C42.6292 38.8781 42.1908 38.5225 41.9429 38.0265C41.6949 37.5304 41.546 37.0924 41.4965 36.712C41.4469 36.3317 41.422 35.7613 41.422 35.0007V26.3197C41.422 23.4426 40.3968 22.0041 38.3464 22.0041C36.3622 22.0041 35.3701 23.4426 35.3701 26.3197V35.0999C35.3701 35.8605 35.3452 36.431 35.2956 36.8112C35.2461 37.1916 35.0891 37.6215 34.8245 38.101C34.5598 38.5806 34.1133 38.9196 33.4851 39.1179C32.8567 39.3165 32.0134 39.4155 30.9552 39.4155C29.9301 39.4155 29.1033 39.3163 28.4749 39.1179C27.8465 38.9194 27.4083 38.5722 27.1604 38.0762C26.9124 37.5801 26.7636 37.1503 26.7139 36.7864C26.6644 36.4227 26.6396 35.8438 26.6396 35.0502V17.589C26.6396 16.8284 26.6644 16.258 26.7139 15.8776C26.7636 15.4974 26.9206 15.0676 27.1853 14.5878C27.45 14.1083 27.8962 13.7694 28.5246 13.5709C29.153 13.3724 29.9962 13.2732 31.0545 13.2732C32.675 13.2732 33.7663 13.5709 34.3283 14.1661C34.8905 14.7614 35.1717 15.6211 35.1717 16.7455C35.2377 16.6464 35.3206 16.5224 35.4198 16.3735C35.5189 16.2247 35.7505 15.9436 36.1142 15.5303C36.478 15.1171 36.8582 14.7532 37.2551 14.439C37.652 14.1248 38.1729 13.8438 38.8178 13.5957C39.4627 13.3477 40.1157 13.2237 40.7771 13.2237C44.1503 13.2237 46.6637 14.6622 48.3172 17.5393C48.6811 17.0432 49.1193 16.5224 49.6318 15.9768C50.1444 15.4311 50.9628 14.8359 52.0872 14.191C53.2115 13.5461 54.3691 13.2237 55.5596 13.2237ZM106.309 12.678C109.946 12.678 113.138 13.9594 115.883 16.5224C118.628 19.0853 120 22.3509 120 26.3193C120 29.0641 119.289 31.5032 117.867 33.636C116.445 35.7691 114.717 37.3399 112.683 38.3487C110.649 39.3573 108.558 39.8617 106.408 39.8617C104.192 39.8617 102.059 39.3243 100.009 38.2493C97.9583 37.1747 96.2303 35.5872 94.8248 33.4872C93.4193 31.3871 92.7166 29.0144 92.7166 26.3686C92.7166 22.4003 94.1056 19.1263 96.8833 16.5468C99.6613 13.9672 102.803 12.6776 106.308 12.6776L106.309 12.678ZM103.084 29.9159C104.142 30.7261 105.217 31.1311 106.309 31.1311C107.4 31.1311 108.491 30.7178 109.583 29.891C110.674 29.0641 111.22 27.8405 111.22 26.2201C111.22 24.5997 110.707 23.3925 109.682 22.599C108.657 21.8054 107.516 21.4085 106.259 21.4085C105.135 21.4085 104.06 21.8219 103.035 22.6486C102.009 23.4754 101.497 24.6825 101.497 26.2698C101.497 27.8903 102.026 29.1056 103.084 29.9159ZM87.7052 1.07016C88.7305 1.07016 89.5572 1.16933 90.1856 1.36786C90.8138 1.56639 91.252 1.91358 91.5001 2.40946C91.7481 2.90568 91.8968 3.34372 91.9464 3.72409C91.9961 4.10429 92.021 4.67485 92.021 5.43542V35.05C92.021 35.8106 91.9961 36.381 91.9464 36.7614C91.8968 37.1417 91.7397 37.5716 91.4752 38.0512C91.2105 38.5307 90.7641 38.8696 90.1357 39.0681C89.5073 39.2666 88.6641 39.3658 87.6058 39.3658C85.0926 39.3658 83.7036 38.5557 83.4389 36.9352C82.0501 38.5225 80.1154 39.3163 77.635 39.3163C74.6587 39.3163 71.9469 38.0183 69.4997 35.4222C67.0525 32.8263 65.8288 29.7588 65.8288 26.2203C65.8288 22.8472 67.0608 19.8542 69.5245 17.2418C71.9881 14.6292 74.6917 13.3229 77.635 13.3229C80.0822 13.3229 81.9838 14.1496 83.3396 15.8033V5.3861C83.3396 4.62535 83.3644 4.05497 83.4141 3.67459C83.4638 3.2944 83.6126 2.86452 83.8606 2.3848C84.1087 1.90525 84.5469 1.56639 85.1751 1.36786C85.8035 1.16933 86.6469 1.07016 87.705 1.07016H87.7052ZM75.7998 29.3455C76.6596 30.2384 77.7014 30.6848 78.925 30.6848C80.1486 30.6848 81.1655 30.2384 81.9758 29.3455C82.7859 28.4525 83.1911 27.4604 83.1911 26.369C83.1911 25.3107 82.8025 24.3186 82.0255 23.3927C81.2482 22.4668 80.1983 22.0039 78.8755 22.0039C77.5525 22.0039 76.4944 22.4586 75.7007 23.368C74.9071 24.2775 74.5102 25.2779 74.5102 26.3692C74.5102 27.4606 74.9401 28.4527 75.8 29.3456L75.7998 29.3455ZM25.9437 22.9958C25.9437 25.1784 25.4394 26.7575 24.4308 27.7331C23.4222 28.7087 22.3061 29.1966 21.0824 29.1966H9.32594C9.32594 30.1225 9.87148 30.8998 10.9629 31.5282C12.0542 32.1566 13.2281 32.4706 14.4849 32.4706C15.3779 32.4706 16.2211 32.4046 17.0149 32.2723C17.8084 32.1399 18.3872 32.0076 18.751 31.8754L19.2968 31.6769C20.0903 31.3132 20.7517 31.1311 21.281 31.1311C22.3391 31.1311 23.2487 31.8752 24.0092 33.3634C24.4391 34.2563 24.6541 35.0168 24.6541 35.6452C24.6541 38.5885 21.1321 40.0602 14.0881 40.0602C11.6408 40.0602 9.46645 39.6387 7.56493 38.7954C5.66341 37.9522 4.1836 36.8442 3.12533 35.4719C2.06688 34.0994 1.28164 32.6526 0.768917 31.1313C0.256369 29.6102 0.000183105 28.0557 0.000183105 26.4683C0.000183105 22.3016 1.34782 18.9696 4.04291 16.4729C6.73818 13.9761 10.1032 12.7277 14.1376 12.7277C15.7581 12.7277 17.2462 12.9508 18.6022 13.3972C19.9582 13.8438 21.0824 14.4225 21.9754 15.1334C22.8683 15.8445 23.6205 16.663 24.2324 17.5888C24.8443 18.5149 25.2823 19.4325 25.5469 20.3419C25.8116 21.2513 25.9437 22.1361 25.9437 22.9958ZM15.4769 24.6825C16.7335 24.6825 17.3619 24.1535 17.3619 23.0952C17.3619 22.3346 17.0725 21.7227 16.4936 21.2598C15.9149 20.7968 15.0798 20.5653 13.9885 20.5653C12.9303 20.5653 11.872 21.0035 10.8137 21.8797C9.75563 22.7561 9.22641 23.6904 9.22641 24.6825H15.4769ZM71.4431 5.25659C70.6646 5.50444 71.1182 6.49245 71.7362 6.2957C72.4073 6.0821 72.1096 5.0444 71.4431 5.25659ZM68.6307 10.5311C68.8241 11.1379 69.1999 10.9917 69.5703 10.8737C70.3099 10.6381 71.0877 9.95504 71.5151 9.35946C71.851 8.89144 72.0642 8.38652 72.1964 7.82199C72.3027 7.36888 72.342 6.85438 71.7144 6.83256C70.7874 6.80027 71.6395 8.3097 69.7538 9.56561C69.295 9.8713 68.4528 9.97242 68.6307 10.5311ZM61.4731 9.03586C61.7843 10.0127 62.3772 10.9053 62.8965 11.4886C63.5633 12.2376 63.8766 12.3707 64.5486 12.8345C64.836 13.033 65.6064 13.3523 65.9205 13.448C66.4425 13.6073 66.5963 13.6298 67.1282 13.715C69.2281 14.0506 71.6677 13.1676 73.068 11.5935L73.7991 10.6542C74.0795 10.2387 74.2865 9.80193 74.4683 9.33959C74.5093 9.23509 74.5351 9.15118 74.5711 9.04916C74.9607 7.9421 75.0533 6.27956 74.6869 5.12938C74.3034 3.92475 73.9171 3.06837 73.0207 2.14937C71.3897 0.477243 68.899 -0.385519 66.5736 0.165705L65.7823 0.383391C65.5771 0.475647 65.2904 0.578192 65.0801 0.67914C64.6946 0.863828 64.1828 1.161 63.8587 1.42179C63.4488 1.75143 63.3012 1.86675 62.9256 2.28527L62.1785 3.27328C61.1295 4.93742 60.8621 7.11589 61.4735 9.03586H61.4731Z" fill="#6500FF"/>
</g>
<defs>
<clipPath id="clip0_89_53">
<rect width="120" height="40.0604" fill="white"/>
</clipPath>
</defs>
</svg>
