<svg width="115" height="41" viewBox="0 0 115 41" fill="none" xmlns="http://www.w3.org/2000/svg">
<g clip-path="url(#clip0_100_34)">
<path fill-rule="evenodd" clip-rule="evenodd" d="M63.5979 1.98615C64.521 1.67762 65.9058 1.83055 66.7206 2.23435C66.8436 2.29538 66.9421 2.35534 67.0646 2.4217C68.8316 3.37991 69.8973 5.54152 69.5862 7.58408C69.5354 7.9178 69.4904 8.17363 69.3885 8.47878C69.247 8.90209 69.08 9.3018 68.8473 9.67384C68.6481 9.99247 68.2751 10.4603 67.9986 10.7018C67.5362 11.1056 67.006 11.4916 66.2684 11.7382C63.9115 12.5265 61.4583 11.3321 60.4293 9.08784C59.6377 7.36196 59.8591 5.48492 60.8473 3.95739C61.0084 3.7083 61.2034 3.4915 61.4223 3.26743C62.1763 2.49639 62.6206 2.31312 63.5981 1.98615H63.5979ZM52.9139 13.2237C55.0297 13.2237 56.8567 13.941 58.395 15.3748C58.729 14.6934 59.0637 14.012 59.402 13.3325C59.5668 13.0012 59.6489 12.7903 59.7714 12.5666C60.6096 13.3736 61.6222 13.9939 62.7555 14.3556C62.5801 14.7747 62.3437 15.2404 62.1592 15.5773C62.1541 15.5867 62.149 15.5964 62.144 15.6069L61.3416 17.2409C61.3265 17.2694 61.3154 17.293 61.303 17.3159L61.2779 17.3626C61.0609 17.7543 60.9143 18.2133 60.6806 18.6002C60.6787 18.6031 60.6769 18.6061 60.6752 18.6091L60.6365 18.6877C61.4091 20.6435 61.7957 23.2039 61.7957 26.3692V35.0502C61.7957 35.8108 61.7721 36.3812 61.7248 36.7615C61.6775 37.1419 61.5357 37.5801 61.2995 38.0762C61.0633 38.5722 60.6459 38.9194 60.0476 39.1179C59.4492 39.3165 58.6461 39.4155 57.6382 39.4155C56.6619 39.4155 55.8745 39.308 55.276 39.0931C54.6776 38.8781 54.2602 38.5225 54.0242 38.0265C53.788 37.5304 53.6462 37.0924 53.5991 36.712C53.5518 36.3317 53.5281 35.7613 53.5281 35.0007V26.3197C53.5281 23.4426 52.5516 22.0041 50.5989 22.0041C49.4966 22.0041 48.7486 22.3843 48.3549 23.1449C47.9614 23.9054 47.7644 24.9804 47.7644 26.3692V35.0502C47.7644 35.8438 47.7407 36.4227 47.6936 36.7864C47.6464 37.1503 47.4967 37.5799 47.2446 38.0762C46.9927 38.5722 46.5676 38.9194 45.9691 39.1179C45.3706 39.3165 44.5675 39.4155 43.5596 39.4155C42.5834 39.4155 41.796 39.308 41.1975 39.0931C40.5992 38.8781 40.1817 38.5225 39.9456 38.0265C39.7094 37.5304 39.5677 37.0924 39.5205 36.712C39.4732 36.3317 39.4496 35.7613 39.4496 35.0007V26.3197C39.4496 23.4426 38.4731 22.0041 36.5204 22.0041C34.6307 22.0041 33.6858 23.4426 33.6858 26.3197V35.0999C33.6858 35.8605 33.6622 36.431 33.6148 36.8112C33.5677 37.1916 33.4182 37.6215 33.1662 38.101C32.9141 38.5806 32.4889 38.9196 31.8906 39.1179C31.2921 39.3165 30.489 39.4155 29.4811 39.4155C28.5048 39.4155 27.7174 39.3163 27.119 39.1179C26.5205 38.9194 26.1031 38.5722 25.8671 38.0762C25.6309 37.5801 25.4891 37.1503 25.4418 36.7864C25.3947 36.4227 25.371 35.8438 25.371 35.0502V17.589C25.371 16.8284 25.3947 16.258 25.4418 15.8776C25.4891 15.4974 25.6387 15.0676 25.8908 14.5878C26.1429 14.1083 26.5678 13.7694 27.1663 13.5709C27.7648 13.3724 28.5678 13.2732 29.5757 13.2732C31.1191 13.2732 32.1584 13.5709 32.6936 14.1661C33.2291 14.7614 33.4969 15.6211 33.4969 16.7455C33.5598 16.6464 33.6387 16.5224 33.7331 16.3735C33.8276 16.2247 34.0481 15.9436 34.3945 15.5303C34.741 15.1171 35.1031 14.7532 35.4811 14.439C35.859 14.1248 36.3551 13.8438 36.9693 13.5957C37.5835 13.3477 38.2055 13.2237 38.8354 13.2237C42.0479 13.2237 44.4416 14.6622 46.0164 17.5393C46.3629 17.0432 46.7803 16.5224 47.2684 15.9768C47.7566 15.4311 48.536 14.8359 49.6069 14.191C50.6776 13.5461 51.7801 13.2237 52.9139 13.2237ZM101.246 12.678C104.711 12.678 107.75 13.9594 110.364 16.5224C112.979 19.0853 114.286 22.3509 114.286 26.3193C114.286 29.0641 113.608 31.5032 112.254 33.636C110.9 35.7691 109.254 37.3399 107.317 38.3487C105.38 39.3573 103.388 39.8617 101.341 39.8617C99.2305 39.8617 97.1991 39.3243 95.2463 38.2493C93.2936 37.1747 91.6479 35.5872 90.3093 33.4872C88.9708 31.3871 88.3015 29.0144 88.3015 26.3686C88.3015 22.4003 89.6244 19.1263 92.2698 16.5468C94.9155 13.9672 97.9077 12.6776 101.246 12.6776L101.246 12.678ZM98.1755 29.9159C99.1832 30.7261 100.207 31.1311 101.246 31.1311C102.286 31.1311 103.325 30.7178 104.364 29.891C105.404 29.0641 105.923 27.8405 105.923 26.2201C105.923 24.5997 105.435 23.3925 104.459 22.599C103.482 21.8054 102.396 21.4085 101.199 21.4085C100.128 21.4085 99.1047 21.8219 98.1282 22.6486C97.1518 23.4754 96.6638 24.6825 96.6638 26.2698C96.6638 27.8903 97.1676 29.1056 98.1755 29.9159ZM83.5288 1.07016C84.5052 1.07016 85.2926 1.16933 85.8911 1.36786C86.4894 1.56639 86.9067 1.91358 87.1429 2.40946C87.3791 2.90568 87.5207 3.34372 87.568 3.72409C87.6153 4.10429 87.639 4.67485 87.639 5.43542V35.05C87.639 35.8106 87.6153 36.381 87.568 36.7614C87.5207 37.1417 87.3712 37.5716 87.1193 38.0512C86.8672 38.5307 86.4421 38.8696 85.8436 39.0681C85.2451 39.2666 84.442 39.3658 83.4341 39.3658C81.0406 39.3658 79.7177 38.5557 79.4656 36.9352C78.143 38.5225 76.3004 39.3163 73.9381 39.3163C71.1035 39.3163 68.5209 38.0183 66.1902 35.4222C63.8595 32.8263 62.6941 29.7588 62.6941 26.2203C62.6941 22.8472 63.8674 19.8542 66.2139 17.2418C68.5601 14.6292 71.135 13.3229 73.9381 13.3229C76.2688 13.3229 78.0798 14.1496 79.371 15.8033V5.3861C79.371 4.62535 79.3947 4.05497 79.442 3.67459C79.4893 3.2944 79.6311 2.86452 79.8673 2.3848C80.1035 1.90525 80.5208 1.56639 81.1191 1.36786C81.7176 1.16933 82.5209 1.07016 83.5286 1.07016H83.5288ZM72.1903 29.3455C73.0091 30.2384 74.0013 30.6848 75.1667 30.6848C76.332 30.6848 77.3005 30.2384 78.0722 29.3455C78.8437 28.4525 79.2296 27.4604 79.2296 26.369C79.2296 25.3107 78.8596 24.3186 78.1195 23.3927C77.3793 22.4668 76.3793 22.0039 75.1195 22.0039C73.8595 22.0039 72.8518 22.4586 72.0959 23.368C71.3401 24.2775 70.9621 25.2779 70.9621 26.3692C70.9621 27.4606 71.3715 28.4527 72.1905 29.3456L72.1903 29.3455ZM24.7083 22.9958C24.7083 25.1784 24.228 26.7575 23.2674 27.7331C22.3068 28.7087 21.2439 29.1966 20.0785 29.1966H8.88185C8.88185 30.1225 9.40142 30.8998 10.4409 31.5282C11.4802 32.1566 12.5982 32.4706 13.7952 32.4706C14.6456 32.4706 15.4487 32.4046 16.2046 32.2723C16.9604 32.1399 17.5116 32.0076 17.8581 31.8754L18.3779 31.6769C19.1337 31.3132 19.7636 31.1311 20.2676 31.1311C21.2753 31.1311 22.1416 31.8752 22.8659 33.3634C23.2753 34.2563 23.4801 35.0168 23.4801 35.6452C23.4801 38.5885 20.1258 40.0602 13.4172 40.0602C11.0865 40.0602 9.01567 39.6387 7.2047 38.7954C5.39373 37.9522 3.98439 36.8442 2.97651 35.4719C1.96846 34.0994 1.22062 32.6526 0.73231 31.1313C0.244169 29.6102 0.000183105 28.0557 0.000183105 26.4683C0.000183105 22.3016 1.28364 18.9696 3.8504 16.4729C6.41732 13.9761 9.62209 12.7277 13.4644 12.7277C15.0077 12.7277 16.425 12.9508 17.7164 13.3972C19.0078 13.8438 20.0785 14.4225 20.9289 15.1334C21.7793 15.8445 22.4957 16.663 23.0785 17.5888C23.6613 18.5149 24.0784 19.4325 24.3304 20.3419C24.5825 21.2513 24.7083 22.1361 24.7083 22.9958ZM14.7399 24.6825C15.9367 24.6825 16.5351 24.1535 16.5351 23.0952C16.5351 22.3346 16.2596 21.7227 15.7082 21.2598C15.1571 20.7968 14.3617 20.5653 13.3224 20.5653C12.3146 20.5653 11.3067 21.0035 10.2988 21.8797C9.29109 22.7561 8.78706 23.6904 8.78706 24.6825H14.7399ZM68.041 5.25659C67.2996 5.50444 67.7317 6.49245 68.3202 6.2957C68.9594 6.0821 68.6758 5.0444 68.041 5.25659ZM65.3626 10.5311C65.5468 11.1379 65.9046 10.9917 66.2574 10.8737C66.9619 10.6381 67.7026 9.95504 68.1096 9.35946C68.4295 8.89144 68.6326 8.38652 68.7585 7.82199C68.8597 7.36888 68.8972 6.85438 68.2994 6.83256C67.4165 6.80027 68.2281 8.3097 66.4322 9.56561C65.9952 9.8713 65.1931 9.97242 65.3626 10.5311ZM58.5459 9.03586C58.8422 10.0127 59.4069 10.9053 59.9015 11.4886C60.5364 12.2376 60.8348 12.3707 61.4749 12.8345C61.7486 13.033 62.4823 13.3523 62.7815 13.448C63.2786 13.6073 63.4251 13.6298 63.9316 13.715C65.9315 14.0506 68.255 13.1676 69.5886 11.5935L70.2849 10.6542C70.5519 10.2387 70.7491 9.80193 70.9222 9.33959C70.9613 9.23509 70.9858 9.15118 71.0201 9.04916C71.3911 7.9421 71.4793 6.27956 71.1304 5.12938C70.7651 3.92475 70.3973 3.06837 69.5435 2.14937C67.9902 0.477243 65.6181 -0.385519 63.4035 0.165705L62.6499 0.383391C62.4544 0.475647 62.1813 0.578192 61.9811 0.67914C61.6139 0.863828 61.1265 1.161 60.8178 1.42179C60.4275 1.75143 60.2869 1.86675 59.9292 2.28527L59.2177 3.27328C58.2186 4.93742 57.9639 7.11589 58.5462 9.03586H58.5459Z" fill="white"/>
</g>
<defs>
<clipPath id="clip0_100_34">
<rect width="114.286" height="40.0604" fill="white"/>
</clipPath>
</defs>
</svg>
