<svg width="48" height="50" viewBox="0 0 48 50" fill="none" xmlns="http://www.w3.org/2000/svg">
<g clip-path="url(#clip0_1_1328)">
<path d="M23.9375 21.875C21.8655 21.875 19.8784 21.0519 18.4132 19.5868C16.9481 18.1216 16.125 16.1345 16.125 14.0625C16.125 11.9905 16.9481 10.0034 18.4132 8.53823C19.8784 7.0731 21.8655 6.25 23.9375 6.25C26.0095 6.25 27.9966 7.0731 29.4618 8.53823C30.9269 10.0034 31.75 11.9905 31.75 14.0625C31.75 16.1345 30.9269 18.1216 29.4618 19.5868C27.9966 21.0519 26.0095 21.875 23.9375 21.875ZM23.9375 9.375C21.3438 9.375 19.25 11.4688 19.25 14.0625C19.25 16.6562 21.3438 18.75 23.9375 18.75C26.5312 18.75 28.625 16.6562 28.625 14.0625C28.625 11.4688 26.5312 9.375 23.9375 9.375Z" fill="#4A02B8"/>
<path d="M42.6875 34.375C41.8125 34.375 41.125 33.6875 41.125 32.8125C41.125 31.9375 41.8125 31.25 42.6875 31.25C43.5625 31.25 44.25 30.5625 44.25 29.6875C44.25 27.6155 43.4269 25.6284 41.9618 24.1632C40.4966 22.6981 38.5095 21.875 36.4375 21.875H33.3125C32.4375 21.875 31.75 21.1875 31.75 20.3125C31.75 19.4375 32.4375 18.75 33.3125 18.75C35.9062 18.75 38 16.6562 38 14.0625C38 11.4688 35.9062 9.375 33.3125 9.375C32.4375 9.375 31.75 8.6875 31.75 7.8125C31.75 6.9375 32.4375 6.25 33.3125 6.25C35.3845 6.25 37.3716 7.0731 38.8368 8.53823C40.3019 10.0034 41.125 11.9905 41.125 14.0625C41.125 16 40.4375 17.75 39.25 19.125C43.9062 20.375 47.375 24.625 47.375 29.6875C47.375 32.2812 45.2812 34.375 42.6875 34.375ZM5.1875 34.375C2.59375 34.375 0.5 32.2812 0.5 29.6875C0.5 24.625 3.9375 20.375 8.625 19.125C7.46875 17.75 6.75 16 6.75 14.0625C6.75 11.9905 7.5731 10.0034 9.03823 8.53823C10.5034 7.0731 12.4905 6.25 14.5625 6.25C15.4375 6.25 16.125 6.9375 16.125 7.8125C16.125 8.6875 15.4375 9.375 14.5625 9.375C11.9688 9.375 9.875 11.4688 9.875 14.0625C9.875 16.6562 11.9688 18.75 14.5625 18.75C15.4375 18.75 16.125 19.4375 16.125 20.3125C16.125 21.1875 15.4375 21.875 14.5625 21.875H11.4375C9.3655 21.875 7.37836 22.6981 5.91323 24.1632C4.4481 25.6284 3.625 27.6155 3.625 29.6875C3.625 30.5625 4.3125 31.25 5.1875 31.25C6.0625 31.25 6.75 31.9375 6.75 32.8125C6.75 33.6875 6.0625 34.375 5.1875 34.375ZM33.3125 43.75H14.5625C11.9688 43.75 9.875 41.6562 9.875 39.0625V35.9375C9.875 29.9062 14.7812 25 20.8125 25H27.0625C33.0938 25 38 29.9062 38 35.9375V39.0625C38 41.6562 35.9062 43.75 33.3125 43.75ZM20.8125 28.125C18.7405 28.125 16.7534 28.9481 15.2882 30.4132C13.8231 31.8784 13 33.8655 13 35.9375V39.0625C13 39.9375 13.6875 40.625 14.5625 40.625H33.3125C34.1875 40.625 34.875 39.9375 34.875 39.0625V35.9375C34.875 33.8655 34.0519 31.8784 32.5868 30.4132C31.1216 28.9481 29.1345 28.125 27.0625 28.125H20.8125Z" fill="#4A02B8"/>
</g>
<defs>
<clipPath id="clip0_1_1328">
<rect width="46.875" height="50" fill="white" transform="translate(0.5)"/>
</clipPath>
</defs>
</svg>
