<svg width="21" height="21" viewBox="0 0 21 21" fill="none" xmlns="http://www.w3.org/2000/svg">
<path d="M14.052 3.01328C14.9943 3.01623 15.8971 3.41055 16.5634 4.11013C17.2296 4.8097 17.6052 5.75768 17.608 6.74702V14.2137C17.6052 15.203 17.2296 16.151 16.5634 16.8506C15.8971 17.5502 14.9943 17.9445 14.052 17.9474H6.94092C5.99869 17.9445 5.09586 17.5502 4.4296 16.8506C3.76334 16.151 3.38779 15.203 3.38498 14.2137V6.74702C3.38779 5.75768 3.76334 4.8097 4.4296 4.11013C5.09586 3.41055 5.99869 3.01623 6.94092 3.01328H14.052ZM14.052 1.52002H6.94092C4.20291 1.52002 1.96283 3.87211 1.96283 6.74702V14.2137C1.96283 17.0886 4.20291 19.4407 6.94092 19.4407H14.052C16.7901 19.4407 19.0301 17.0886 19.0301 14.2137V6.74702C19.0301 3.87211 16.7901 1.52002 14.052 1.52002Z" fill="black"/>
<path d="M15.1185 6.74692C14.9075 6.74692 14.7013 6.68123 14.5258 6.55816C14.3504 6.43509 14.2137 6.26016 14.133 6.0555C14.0522 5.85084 14.0311 5.62564 14.0723 5.40837C14.1134 5.1911 14.215 4.99153 14.3642 4.83489C14.5134 4.67825 14.7034 4.57157 14.9104 4.52836C15.1173 4.48514 15.3318 4.50732 15.5267 4.59209C15.7216 4.67687 15.8882 4.82043 16.0054 5.00462C16.1226 5.18881 16.1852 5.40535 16.1852 5.62688C16.1855 5.77405 16.1581 5.91984 16.1046 6.05587C16.0511 6.19191 15.9725 6.31551 15.8734 6.41957C15.7743 6.52364 15.6566 6.60613 15.527 6.66231C15.3975 6.71848 15.2586 6.74724 15.1185 6.74692Z" fill="black"/>
<path d="M10.4958 7.49374C11.0585 7.49374 11.6084 7.66892 12.0763 7.99713C12.5441 8.32534 12.9087 8.79183 13.124 9.33762C13.3393 9.8834 13.3956 10.484 13.2859 11.0634C13.1761 11.6428 12.9052 12.175 12.5073 12.5927C12.1095 13.0104 11.6026 13.2949 11.0508 13.4102C10.499 13.5254 9.92702 13.4663 9.40722 13.2402C8.88742 13.0141 8.44315 12.6313 8.13057 12.1401C7.81799 11.6489 7.65115 11.0714 7.65115 10.4807C7.65196 9.68874 7.95193 8.9295 8.48523 8.36953C9.01854 7.80956 9.74162 7.49459 10.4958 7.49374ZM10.4958 6.00049C9.65193 6.00049 8.82699 6.26325 8.12531 6.75553C7.42363 7.24782 6.87674 7.94753 6.5538 8.76617C6.23085 9.58481 6.14636 10.4856 6.31099 11.3547C6.47563 12.2238 6.882 13.0221 7.47873 13.6486C8.07546 14.2752 8.83573 14.7019 9.66342 14.8747C10.4911 15.0476 11.349 14.9589 12.1287 14.6198C12.9083 14.2807 13.5747 13.7065 14.0436 12.9697C14.5124 12.2329 14.7627 11.3668 14.7627 10.4807C14.7627 9.29244 14.3131 8.15289 13.5129 7.3127C12.7127 6.4725 11.6275 6.00049 10.4958 6.00049Z" fill="black"/>
</svg>
