<svg width="21" height="21" viewBox="0 0 21 21" fill="none" xmlns="http://www.w3.org/2000/svg">
<path d="M19.7924 4.62037C19.1064 4.93332 18.3807 5.1395 17.638 5.23239C18.4185 4.75252 19.0054 3.99017 19.2887 3.08831C18.5508 3.54136 17.7449 3.85925 16.9054 4.02835C16.5519 3.63934 16.1268 3.32988 15.6558 3.11877C15.1849 2.90766 14.678 2.79931 14.1659 2.8003C12.0927 2.8003 10.4149 4.53636 10.4149 6.67645C10.4134 6.97412 10.4459 7.27091 10.5117 7.56048C9.025 7.4873 7.56927 7.08909 6.23758 6.39134C4.9059 5.69358 3.72758 4.71164 2.77803 3.50833C2.4449 4.098 2.26873 4.77079 2.26791 5.4564C2.26791 6.80045 2.93575 7.98849 3.94417 8.68452C3.34671 8.66963 2.76149 8.50359 2.2382 8.2005V8.2485C2.2382 10.1286 3.53349 11.6926 5.24784 12.0486C4.92546 12.1389 4.59325 12.1846 4.25961 12.1847C4.02287 12.1851 3.78666 12.161 3.55444 12.1126C4.03103 13.6527 5.41813 14.7728 7.06124 14.8048C5.72609 15.8852 4.08689 16.4691 2.40125 16.4648C2.10205 16.4643 1.80312 16.4456 1.50598 16.4088C3.22078 17.5585 5.2141 18.1667 7.24867 18.1609C14.1579 18.1609 17.9325 12.2527 17.9325 7.12846C17.9325 6.96046 17.9283 6.79245 17.9207 6.62844C18.6533 6.08125 19.2871 5.40124 19.7924 4.62037Z" fill="black"/>
</svg>
