<svg width="21" height="21" viewBox="0 0 21 21" fill="none" xmlns="http://www.w3.org/2000/svg">
<path d="M17.4315 1.52002H3.18753C2.40921 1.52002 1.72919 2.10804 1.72919 2.91567V17.905C1.72919 18.7171 2.40921 19.4407 3.18753 19.4407H17.4273C18.2098 19.4407 18.7965 18.7123 18.7965 17.905V2.91567C18.8011 2.10804 18.2098 1.52002 17.4315 1.52002ZM7.01967 16.4578H4.57463V8.47548H7.01967V16.4578ZM5.88172 7.26184H5.8642C5.08169 7.26184 4.57501 6.65021 4.57501 5.88458C4.57501 5.10495 5.09503 4.50773 5.89506 4.50773C6.69509 4.50773 7.18463 5.10055 7.20215 5.88458C7.20177 6.65021 6.69509 7.26184 5.88172 7.26184ZM15.9556 16.4578H13.5106V12.0932C13.5106 11.0476 13.1548 10.3332 12.2702 10.3332C11.5943 10.3332 11.1943 10.8132 11.0164 11.2808C10.9497 11.4488 10.9318 11.6776 10.9318 11.9112V16.4578H8.48677V8.47548H10.9318V9.58632C11.2876 9.0543 11.8435 8.28867 13.1369 8.28867C14.7419 8.28867 15.956 9.39952 15.956 11.7944L15.9556 16.4578Z" fill="black"/>
</svg>
