<svg width="51" height="50" viewBox="0 0 51 50" fill="none" xmlns="http://www.w3.org/2000/svg">
<path d="M13.5208 25C13.1064 25 12.709 25.1646 12.416 25.4576C12.123 25.7506 11.9583 26.1481 11.9583 26.5625C11.9583 26.9769 12.123 27.3743 12.416 27.6673C12.709 27.9603 13.1064 28.125 13.5208 28.125H14.5625C14.9769 28.125 15.3743 27.9603 15.6674 27.6673C15.9604 27.3743 16.125 26.9769 16.125 26.5625C16.125 26.1481 15.9604 25.7506 15.6674 25.4576C15.3743 25.1646 14.9769 25 14.5625 25H13.5208ZM11.9583 19.2708C11.9583 18.8564 12.123 18.459 12.416 18.1659C12.709 17.8729 13.1064 17.7083 13.5208 17.7083H14.5625C14.9769 17.7083 15.3743 17.8729 15.6674 18.1659C15.9604 18.459 16.125 18.8564 16.125 19.2708C16.125 19.6852 15.9604 20.0826 15.6674 20.3756C15.3743 20.6687 14.9769 20.8333 14.5625 20.8333H13.5208C13.1064 20.8333 12.709 20.6687 12.416 20.3756C12.123 20.0826 11.9583 19.6852 11.9583 19.2708ZM13.5208 10.4166C13.1064 10.4166 12.709 10.5812 12.416 10.8743C12.123 11.1673 11.9583 11.5647 11.9583 11.9791C11.9583 12.3935 12.123 12.791 12.416 13.084C12.709 13.377 13.1064 13.5416 13.5208 13.5416H14.5625C14.9769 13.5416 15.3743 13.377 15.6674 13.084C15.9604 12.791 16.125 12.3935 16.125 11.9791C16.125 11.5647 15.9604 11.1673 15.6674 10.8743C15.3743 10.5812 14.9769 10.4166 14.5625 10.4166H13.5208ZM19.25 26.5625C19.25 26.1481 19.4146 25.7506 19.7076 25.4576C20.0007 25.1646 20.3981 25 20.8125 25H21.8542C22.2686 25 22.666 25.1646 22.959 25.4576C23.252 25.7506 23.4167 26.1481 23.4167 26.5625C23.4167 26.9769 23.252 27.3743 22.959 27.6673C22.666 27.9603 22.2686 28.125 21.8542 28.125H20.8125C20.3981 28.125 20.0007 27.9603 19.7076 27.6673C19.4146 27.3743 19.25 26.9769 19.25 26.5625ZM20.8125 17.7083C20.3981 17.7083 20.0007 17.8729 19.7076 18.1659C19.4146 18.459 19.25 18.8564 19.25 19.2708C19.25 19.6852 19.4146 20.0826 19.7076 20.3756C20.0007 20.6687 20.3981 20.8333 20.8125 20.8333H21.8542C22.2686 20.8333 22.666 20.6687 22.959 20.3756C23.252 20.0826 23.4167 19.6852 23.4167 19.2708C23.4167 18.8564 23.252 18.459 22.959 18.1659C22.666 17.8729 22.2686 17.7083 21.8542 17.7083H20.8125ZM19.25 11.9791C19.25 11.5647 19.4146 11.1673 19.7076 10.8743C20.0007 10.5812 20.3981 10.4166 20.8125 10.4166H21.8542C22.2686 10.4166 22.666 10.5812 22.959 10.8743C23.252 11.1673 23.4167 11.5647 23.4167 11.9791C23.4167 12.3935 23.252 12.791 22.959 13.084C22.666 13.377 22.2686 13.5416 21.8542 13.5416H20.8125C20.3981 13.5416 20.0007 13.377 19.7076 13.084C19.4146 12.791 19.25 12.3935 19.25 11.9791ZM28.1042 25C27.6898 25 27.2923 25.1646 26.9993 25.4576C26.7063 25.7506 26.5417 26.1481 26.5417 26.5625C26.5417 26.9769 26.7063 27.3743 26.9993 27.6673C27.2923 27.9603 27.6898 28.125 28.1042 28.125H29.1458C29.5602 28.125 29.9577 27.9603 30.2507 27.6673C30.5437 27.3743 30.7083 26.9769 30.7083 26.5625C30.7083 26.1481 30.5437 25.7506 30.2507 25.4576C29.9577 25.1646 29.5602 25 29.1458 25H28.1042ZM26.5417 19.2708C26.5417 18.8564 26.7063 18.459 26.9993 18.1659C27.2923 17.8729 27.6898 17.7083 28.1042 17.7083H29.1458C29.5602 17.7083 29.9577 17.8729 30.2507 18.1659C30.5437 18.459 30.7083 18.8564 30.7083 19.2708C30.7083 19.6852 30.5437 20.0826 30.2507 20.3756C29.9577 20.6687 29.5602 20.8333 29.1458 20.8333H28.1042C27.6898 20.8333 27.2923 20.6687 26.9993 20.3756C26.7063 20.0826 26.5417 19.6852 26.5417 19.2708ZM28.1042 10.4166C27.6898 10.4166 27.2923 10.5812 26.9993 10.8743C26.7063 11.1673 26.5417 11.5647 26.5417 11.9791C26.5417 12.3935 26.7063 12.791 26.9993 13.084C27.2923 13.377 27.6898 13.5416 28.1042 13.5416H29.1458C29.5602 13.5416 29.9577 13.377 30.2507 13.084C30.5437 12.791 30.7083 12.3935 30.7083 11.9791C30.7083 11.5647 30.5437 11.1673 30.2507 10.8743C29.9577 10.5812 29.5602 10.4166 29.1458 10.4166H28.1042Z" fill="#4A02B8"/>
<path d="M4.66667 41.6667V6.25004C4.66667 5.14497 5.10565 4.08516 5.88705 3.30376C6.66846 2.52236 7.72826 2.08337 8.83333 2.08337H33.8333C34.9384 2.08337 35.9982 2.52236 36.7796 3.30376C37.561 4.08516 38 5.14497 38 6.25004V41.6667C38 42.0271 37.9542 42.375 37.8688 42.7084H42.1667C42.4429 42.7084 42.7079 42.5986 42.9032 42.4033C43.0986 42.2079 43.2083 41.943 43.2083 41.6667V25C43.2083 24.8383 43.1707 24.6788 43.0984 24.5342C43.026 24.3896 42.921 24.2637 42.7917 24.1667L41.75 23.3855C41.4185 23.1368 41.1993 22.7667 41.1407 22.3564C41.0821 21.9462 41.1889 21.5295 41.4375 21.198C41.6861 20.8664 42.0563 20.6473 42.4665 20.5887C42.8768 20.5301 43.2935 20.6368 43.625 20.8855L44.6667 21.6667C45.7167 22.4542 46.3333 23.6875 46.3333 25V41.6667C46.3333 42.7718 45.8944 43.8316 45.1129 44.613C44.3315 45.3944 43.2717 45.8334 42.1667 45.8334H34.7458C34.6295 45.8335 34.5136 45.8209 34.4 45.7959C34.2146 45.8209 34.025 45.8334 33.8333 45.8334H26.0208C25.6064 45.8334 25.209 45.6688 24.916 45.3757C24.623 45.0827 24.4583 44.6853 24.4583 44.2709V39.5834H18.2083V44.2709C18.2083 44.6853 18.0437 45.0827 17.7507 45.3757C17.4577 45.6688 17.0602 45.8334 16.6458 45.8334H8.83333C7.72826 45.8334 6.66846 45.3944 5.88705 44.613C5.10565 43.8316 4.66667 42.7718 4.66667 41.6667ZM8.83333 42.7084H15.0833V38.0209C15.0833 37.6065 15.248 37.209 15.541 36.916C15.834 36.623 16.2314 36.4584 16.6458 36.4584H26.0208C26.4352 36.4584 26.8327 36.623 27.1257 36.916C27.4187 37.209 27.5833 37.6065 27.5833 38.0209V42.7084H33.8333C34.1096 42.7084 34.3746 42.5986 34.5699 42.4033C34.7653 42.2079 34.875 41.943 34.875 41.6667V6.25004C34.875 5.97377 34.7653 5.70882 34.5699 5.51347C34.3746 5.31812 34.1096 5.20837 33.8333 5.20837H8.83333C8.55707 5.20837 8.29211 5.31812 8.09676 5.51347C7.90141 5.70882 7.79167 5.97377 7.79167 6.25004V41.6667C7.79167 41.943 7.90141 42.2079 8.09676 42.4033C8.29211 42.5986 8.55707 42.7084 8.83333 42.7084Z" fill="#4A02B8"/>
</svg>
