<svg width="48" height="48" viewBox="0 0 48 48" fill="none" xmlns="http://www.w3.org/2000/svg">
<path d="M4 18C4 15.7909 5.79086 14 8 14H40C42.2092 14 44 15.7909 44 18V40C44 42.2092 42.2092 44 40 44H8C5.79086 44 4 42.2092 4 40V18Z" stroke="#4A02B8" stroke-width="4" stroke-linecap="round" stroke-linejoin="round"/>
<path d="M32 14V8C32 5.79086 30.2092 4 28 4H20C17.7909 4 16 5.79086 16 8V14" stroke="#4A02B8" stroke-width="4" stroke-linecap="round" stroke-linejoin="round"/>
<path d="M44 24L24.7844 27.8432C24.2666 27.9466 23.7334 27.9466 23.2156 27.8432L4 24" stroke="#4A02B8" stroke-width="4" stroke-linecap="round" stroke-linejoin="round"/>
</svg>
